<svg width="48" height="48" viewBox="0 0 48 48" fill="none" xmlns="http://www.w3.org/2000/svg">
<path d="M24 6C14.0586 6 6 14.0586 6 24C6 33.9414 14.0586 42 24 42C33.9414 42 42 33.9414 42 24C42 14.0586 33.9414 6 24 6Z" fill="url(#paint0_linear)"/>
<path d="M26.4363 28.7709H31.0947L31.8264 24.0387H26.4363V21.4521C26.4363 19.4865 27.0789 17.7432 28.9176 17.7432H31.8723V13.614C31.353 13.5438 30.255 13.3908 28.1805 13.3908C23.8479 13.3908 21.3081 15.6786 21.3081 20.8914V24.0396H16.854V28.7718H21.3072V41.7786C22.1892 41.91 23.0829 42 24 42C24.8289 42 25.638 41.9244 26.4363 41.8164V28.7709Z" fill="white"/>
<defs>
<linearGradient id="paint0_linear" x1="11.3937" y1="11.3937" x2="38.9535" y2="38.9535" gradientUnits="userSpaceOnUse">
<stop stop-color="#2AA4F4"/>
<stop offset="1" stop-color="#007AD9"/>
</linearGradient>
</defs>
</svg>
