<svg width="54" height="54" viewBox="0 0 54 54" fill="none" xmlns="http://www.w3.org/2000/svg">
<path d="M37.1739 45H16.8261C12.5217 45 9 41.4783 9 37.1739V16.8261C9 12.5217 12.5217 9 16.8261 9H37.1739C41.4783 9 45 12.5217 45 16.8261V37.1739C45 41.4783 41.4783 45 37.1739 45Z" fill="url(#paint0_radial)"/>
<path d="M27.0001 16.0435C30.6001 16.0435 30.9915 16.0435 32.4002 16.1217C33.7306 16.2 34.4349 16.4348 34.9045 16.5913C35.5306 16.8261 36.0001 17.1391 36.4697 17.6087C36.9393 18.0783 37.2523 18.5478 37.4871 19.1739C37.6436 19.6435 37.8784 20.3478 37.9567 21.6783C37.9567 23.0087 37.9567 23.4 37.9567 27C37.9567 30.6 37.9567 30.9913 37.8784 32.4C37.8001 33.7304 37.5654 34.4348 37.4088 34.9043C37.1741 35.5304 36.861 36 36.3915 36.4696C35.9219 36.9391 35.4523 37.2522 34.8262 37.487C34.3567 37.6435 33.6523 37.8783 32.3219 37.9565C30.9915 37.9565 30.6001 37.9565 27.0001 37.9565C23.4001 37.9565 23.0088 37.9565 21.6001 37.8783C20.2697 37.8 19.5654 37.5652 19.0958 37.4087C18.4697 37.1739 18.0001 36.8609 17.5306 36.3913C17.061 35.9217 16.748 35.4522 16.5132 34.8261C16.3567 34.3565 16.1219 33.6522 16.0436 32.3217C16.0436 30.9913 16.0436 30.6 16.0436 27C16.0436 23.4 16.0436 23.0087 16.1219 21.6C16.2001 20.2696 16.4349 19.5652 16.5915 19.0956C16.8262 18.4696 17.1393 18 17.6088 17.5304C18.0784 17.0609 18.548 16.7478 19.1741 16.513C19.6436 16.3565 20.348 16.1217 21.6784 16.0435C23.0088 16.0435 23.4001 16.0435 27.0001 16.0435ZM27.0001 13.6956C23.4001 13.6956 22.9306 13.6956 21.5219 13.7739C20.1132 13.8522 19.1741 14.087 18.3132 14.4C17.4523 14.713 16.6697 15.1826 15.9654 15.9652C15.261 16.7478 14.7915 17.4522 14.4001 18.313C14.0871 19.1739 13.8523 20.113 13.7741 21.5217C13.6958 22.9304 13.6958 23.4 13.6958 27C13.6958 30.6 13.6958 31.0696 13.7741 32.4783C13.8523 33.887 14.0871 34.8261 14.4001 35.687C14.7132 36.5478 15.1828 37.3304 15.9654 38.0348C16.6697 38.7391 17.4523 39.2087 18.3132 39.6C19.1741 39.913 20.1132 40.1478 21.5219 40.2261C22.9306 40.3043 23.4001 40.3043 27.0001 40.3043C30.6001 40.3043 31.0697 40.3043 32.4784 40.2261C33.8871 40.1478 34.8262 39.913 35.6871 39.6C36.548 39.287 37.3306 38.8174 38.0349 38.0348C38.7393 37.3304 39.2088 36.5478 39.6001 35.687C39.9132 34.8261 40.148 33.887 40.2262 32.4783C40.3045 31.0696 40.3045 30.6 40.3045 27C40.3045 23.4 40.3045 22.9304 40.2262 21.5217C40.148 20.113 39.9132 19.1739 39.6001 18.313C39.2871 17.4522 38.8175 16.6696 38.0349 15.9652C37.2523 15.2609 36.548 14.7913 35.6871 14.4C34.8262 14.087 33.8871 13.8522 32.4784 13.7739C31.0697 13.6956 30.6001 13.6956 27.0001 13.6956Z" fill="white"/>
<path d="M27 19.9565C23.087 19.9565 19.9565 23.0869 19.9565 27C19.9565 30.913 23.087 34.0435 27 34.0435C30.9131 34.0435 34.0435 30.913 34.0435 27C34.0435 23.0869 30.9131 19.9565 27 19.9565ZM27 31.6956C24.4174 31.6956 22.3044 29.5826 22.3044 27C22.3044 24.4174 24.4174 22.3043 27 22.3043C29.5826 22.3043 31.6957 24.4174 31.6957 27C31.6957 29.5826 29.5826 31.6956 27 31.6956Z" fill="white"/>
<path d="M34.0432 21.5217C34.9077 21.5217 35.6085 20.821 35.6085 19.9565C35.6085 19.0921 34.9077 18.3913 34.0432 18.3913C33.1788 18.3913 32.478 19.0921 32.478 19.9565C32.478 20.821 33.1788 21.5217 34.0432 21.5217Z" fill="white"/>
<defs>
<radialGradient id="paint0_radial" cx="0" cy="0" r="1" gradientUnits="userSpaceOnUse" gradientTransform="translate(16.4418 52.2748) rotate(-49.945) scale(54.5052 36.0053)">
<stop offset="0.073" stop-color="#EACC7B"/>
<stop offset="0.184" stop-color="#ECAA59"/>
<stop offset="0.307" stop-color="#EF802E"/>
<stop offset="0.358" stop-color="#EF6D3A"/>
<stop offset="0.46" stop-color="#F04B50"/>
<stop offset="0.516" stop-color="#F03E58"/>
<stop offset="0.689" stop-color="#DB359E"/>
<stop offset="0.724" stop-color="#CE37A4"/>
<stop offset="0.789" stop-color="#AC3CB4"/>
<stop offset="0.877" stop-color="#7544CF"/>
<stop offset="0.98" stop-color="#2B4FF2"/>
</radialGradient>
</defs>
</svg>
